<svg xmlns="http://www.w3.org/2000/svg" viewBox="0 0 1200 800" width="1200" height="800"><rect width="1200" height="800" fill="#ffffff"/><g stroke-linejoin="round" stroke-linecap="round"><path d="M932 623.2L900.7 641.3L900.7 352.6L932 334.6Z" fill="#d4d3cf" stroke="#141414" stroke-width="1.5"/><path d="M432 370.7L900.7 641.3L900.7 352.6L432 82Z" fill="#e6e5e1" stroke="#141414" stroke-width="1.5"/><path d="M441.4 240.8L500.8 275.1L500.8 233.6L441.4 199.3Z" fill="#3d3c39" stroke="#141414" stroke-width="1"/><path d="M519.5 285.9L578.9 320.2L578.9 278.7L519.5 244.4Z" fill="#3d3c39" stroke="#141414" stroke-width="1"/><path d="M597.7 331L657 365.3L657 323.8L597.7 289.5Z" fill="#3d3c39" stroke="#141414" stroke-width="1"/><path d="M675.8 376.1L735.1 410.4L735.1 368.9L675.8 334.6Z" fill="#3d3c39" stroke="#141414" stroke-width="1"/><path d="M753.9 421.2L813.3 455.5L813.3 414L753.9 379.7Z" fill="#3d3c39" stroke="#141414" stroke-width="1"/><path d="M832 466.3L891.4 500.6L891.4 459.1L832 424.8Z" fill="#3d3c39" stroke="#141414" stroke-width="1"/><path d="M441.4 188.5L500.8 222.8L500.8 181.3L441.4 147Z" fill="#3d3c39" stroke="#141414" stroke-width="1"/><path d="M519.5 233.6L578.9 267.9L578.9 226.4L519.5 192.1Z" fill="#3d3c39" stroke="#141414" stroke-width="1"/><path d="M597.7 278.7L657 313L657 271.5L597.7 237.2Z" fill="#3d3c39" stroke="#141414" stroke-width="1"/><path d="M675.8 323.8L735.1 358.1L735.1 316.6L675.8 282.3Z" fill="#b23a1d" stroke="#141414" stroke-width="1"/><path d="M753.9 368.9L813.3 403.2L813.3 361.7L753.9 327.4Z" fill="#3d3c39" stroke="#141414" stroke-width="1"/><path d="M832 414L891.4 448.3L891.4 406.8L832 372.5Z" fill="#3d3c39" stroke="#141414" stroke-width="1"/><path d="M441.4 136.2L500.8 170.4L500.8 128.9L441.4 94.7Z" fill="#3d3c39" stroke="#141414" stroke-width="1"/><path d="M519.5 181.3L578.9 215.5L578.9 174L519.5 139.8Z" fill="#3d3c39" stroke="#141414" stroke-width="1"/><path d="M597.7 226.4L657 260.6L657 219.1L597.7 184.9Z" fill="#3d3c39" stroke="#141414" stroke-width="1"/><path d="M675.8 271.5L735.1 305.7L735.1 264.2L675.8 230Z" fill="#3d3c39" stroke="#141414" stroke-width="1"/><path d="M753.9 316.6L813.3 350.8L813.3 309.3L753.9 275.1Z" fill="#3d3c39" stroke="#141414" stroke-width="1"/><path d="M832 361.7L891.4 395.9L891.4 354.4L832 320.2Z" fill="#3d3c39" stroke="#141414" stroke-width="1"/><path d="M463.3 64L932 334.6L900.7 352.6L432 82Z" fill="#ffffff" stroke="#141414" stroke-width="1.5"/><path d="M900.7 641.3L846.1 672.9L846.1 551.1L900.7 519.5Z" fill="#d4d3cf" stroke="#141414" stroke-width="1.5"/><path d="M377.4 402.3L846.1 672.9L846.1 551.1L377.4 280.5Z" fill="#e6e5e1" stroke="#141414" stroke-width="1.5"/><path d="M432 248.9L900.7 519.5L846.1 551.1L377.4 280.5Z" fill="#ffffff" stroke="#141414" stroke-width="1.5"/><path d="M846.1 672.9L791.4 704.4L791.4 623.2L846.1 591.7Z" fill="#d4d3cf" stroke="#141414" stroke-width="1.5"/><path d="M322.7 433.8L791.4 704.4L791.4 623.2L322.7 352.6Z" fill="#e6e5e1" stroke="#141414" stroke-width="1.5"/><path d="M377.4 321.1L846.1 591.7L791.4 623.2L322.7 352.6Z" fill="#ffffff" stroke="#141414" stroke-width="1.5"/><path d="M791.4 704.4L736.7 736L736.7 695.4L791.4 663.8Z" fill="#d4d3cf" stroke="#141414" stroke-width="1.5"/><path d="M268 465.4L736.7 736L736.7 695.4L268 424.8Z" fill="#e6e5e1" stroke="#141414" stroke-width="1.5"/><path d="M322.7 393.2L791.4 663.8L736.7 695.4L268 424.8Z" fill="#ffffff" stroke="#141414" stroke-width="1.5"/></g></svg>
