<svg xmlns="http://www.w3.org/2000/svg" viewBox="0 0 1200 800" width="1200" height="800"><rect width="1200" height="800" fill="#ffffff"/><g stroke-linejoin="round" stroke-linecap="round"><path d="M151.5 380.3L152.1 379.8L152.6 379.3L153.2 378.7L153.7 378.2L154.2 377.7L154.8 377.2L155.3 376.6L155.9 376.1L156.4 375.6L157 375.1L157.5 374.5L158.1 374L158.6 373.5L159.2 373L159.7 372.4L160.3 371.9L160.8 371.4L161.4 370.9L161.9 370.3L162.4 369.8L163 369.3L163.5 368.8L164.1 368.2L164.6 367.7L165.2 367.2L165.7 366.7L166.3 366.1L166.8 365.6L167.4 365.1L167.9 364.6L168.5 364L169 363.5L169.6 363L170.1 362.5L170.7 361.9L171.2 361.4L171.7 360.9L172.3 360.4L172.8 359.8L173.4 359.3L173.9 358.8L174.5 358.3L175 357.7L175.6 357.2L176.1 356.7L176.7 356.2L177.2 355.6L177.8 355.1L178.3 354.6L178.9 354.1L179.4 353.5L180 353L180.5 352.5L181 352L181.6 351.4L182.1 350.9L182.7 350.4L183.2 349.9L183.8 349.3L184.3 348.8L184.9 348.3L185.4 347.8L186 347.2L186.5 346.7L187.1 346.2L187.6 345.7L188.2 345.1L188.7 344.6L189.2 344.1L189.8 343.6L190.3 343L190.9 342.5L191.4 342L192 341.5L192.5 340.9L193.1 340.4L193.6 339.9L194.2 339.4L194.7 338.8L195.3 338.3L195.8 337.8L196.4 337.3L196.9 336.7L197.5 336.2L198 335.7L198.5 335.2L199.1 334.6L199.6 334.1L200.2 333.6L200.7 333.1L201.3 332.5L201.8 332L202.4 331.5L202.9 331L203.5 330.4L204 329.9L204.6 329.4L205.1 328.9L205.7 328.3L206.2 327.8L206.8 328.3L207.3 328.9L207.8 329.4L208.4 329.9L208.9 330.4L209.5 331L210 331.5L210.6 332L211.1 332.5L211.7 333.1L212.2 333.6L212.8 334.1L213.3 334.6L213.9 335.2L214.4 335.7L215 336.2L215.5 336.7L216 337.3L216.6 337.8L217.1 338.3L217.7 338.8L218.2 339.4L218.8 339.9L219.3 340.4L219.9 340.9L220.4 341.5L221 342L221.5 342.5L222.1 343L222.6 343.6L223.2 344.1L223.7 344.6L224.3 345.1L224.8 345.7L225.3 346.2L225.9 346.7L226.4 347.2L227 347.8L227.5 348.3L228.1 348.8L228.6 349.3L229.2 349.9L229.7 350.4L230.3 350.9L230.8 351.4L231.4 352L231.9 352.5L232.5 353L233 353.5L233.6 354.1L234.1 354.6L234.6 355.1L235.2 355.6L235.7 356.2L236.3 356.7L236.8 357.2L237.4 357.7L237.9 358.3L238.5 358.8L239 359.3L239.6 359.8L240.1 360.4L240.7 360.9L241.2 361.4L241.8 361.9L242.3 362.5L242.8 363L243.4 363.5L243.9 364L244.5 364.6L245 365.1L245.6 365.6L246.1 366.1L246.7 366.7L247.2 367.2L247.8 367.7L248.3 368.2L248.9 368.8L249.4 369.3L250 369.8L250.5 370.3L251.1 370.9L251.6 371.4L252.1 371.9L252.7 372.4L253.2 373L253.8 373.5L254.3 374L254.9 374.5L255.4 375.1L256 375.6L256.5 376.1L257.1 376.6L257.6 377.2L258.2 377.7L258.7 378.2L259.3 378.7L259.8 379.3L260.4 379.8L260.9 380.3L260.9 502.8L151.5 502.8Z" fill="#ffffff" stroke="#141414" stroke-width="5"/><path d="M151.5 439.4L260.9 439.4" fill="none" stroke="#141414" stroke-width="4"/><path d="M304.7 380.3L305.2 379.8L305.7 379.3L306.3 378.7L306.8 378.2L307.4 377.7L307.9 377.2L308.5 376.6L309 376.1L309.6 375.6L310.1 375.1L310.7 374.5L311.2 374L311.8 373.5L312.3 373L312.9 372.4L313.4 371.9L314 371.4L314.5 370.9L315 370.3L315.6 369.8L316.1 369.3L316.7 368.8L317.2 368.2L317.8 367.7L318.3 367.2L318.9 366.7L319.4 366.1L320 365.6L320.5 365.1L321.1 364.6L321.6 364L322.2 363.5L322.7 363L323.2 362.5L323.8 361.9L324.3 361.4L324.9 360.9L325.4 360.4L326 359.8L326.5 359.3L327.1 358.8L327.6 358.3L328.2 357.7L328.7 357.2L329.3 356.7L329.8 356.2L330.4 355.6L330.9 355.1L331.5 354.6L332 354.1L332.5 353.5L333.1 353L333.6 352.5L334.2 352L334.7 351.4L335.3 350.9L335.8 350.4L336.4 349.9L336.9 349.3L337.5 348.8L338 348.3L338.6 347.8L339.1 347.2L339.7 346.7L340.2 346.2L340.8 345.7L341.3 345.1L341.8 344.6L342.4 344.1L342.9 343.6L343.5 343L344 342.5L344.6 342L345.1 341.5L345.7 340.9L346.2 340.4L346.8 339.9L347.3 339.4L347.9 338.8L348.4 338.3L349 337.8L349.5 337.3L350 336.7L350.6 336.2L351.1 335.7L351.7 335.2L352.2 334.6L352.8 334.1L353.3 333.6L353.9 333.1L354.4 332.5L355 332L355.5 331.5L356.1 331L356.6 330.4L357.2 329.9L357.7 329.4L358.3 328.9L358.8 328.3L359.3 327.8L359.9 328.3L360.4 328.9L361 329.4L361.5 329.9L362.1 330.4L362.6 331L363.2 331.5L363.7 332L364.3 332.5L364.8 333.1L365.4 333.6L365.9 334.1L366.5 334.6L367 335.2L367.6 335.7L368.1 336.2L368.6 336.7L369.2 337.3L369.7 337.8L370.3 338.3L370.8 338.8L371.4 339.4L371.9 339.9L372.5 340.4L373 340.9L373.6 341.5L374.1 342L374.7 342.5L375.2 343L375.8 343.6L376.3 344.1L376.8 344.6L377.4 345.1L377.9 345.7L378.5 346.2L379 346.7L379.6 347.2L380.1 347.8L380.7 348.3L381.2 348.8L381.8 349.3L382.3 349.9L382.9 350.4L383.4 350.9L384 351.4L384.5 352L385.1 352.5L385.6 353L386.1 353.5L386.7 354.1L387.2 354.6L387.8 355.1L388.3 355.6L388.9 356.2L389.4 356.7L390 357.2L390.5 357.7L391.1 358.3L391.6 358.8L392.2 359.3L392.7 359.8L393.3 360.4L393.8 360.9L394.4 361.4L394.9 361.9L395.4 362.5L396 363L396.5 363.5L397.1 364L397.6 364.6L398.2 365.1L398.7 365.6L399.3 366.1L399.8 366.7L400.4 367.2L400.9 367.7L401.5 368.2L402 368.8L402.6 369.3L403.1 369.8L403.6 370.3L404.2 370.9L404.7 371.4L405.3 371.9L405.8 372.4L406.4 373L406.9 373.5L407.5 374L408 374.5L408.6 375.1L409.1 375.6L409.7 376.1L410.2 376.6L410.8 377.2L411.3 377.7L411.9 378.2L412.4 378.7L412.9 379.3L413.5 379.8L414 380.3L414 502.8L304.7 502.8Z" fill="#ffffff" stroke="#141414" stroke-width="5"/><path d="M304.7 439.4L414 439.4" fill="none" stroke="#141414" stroke-width="4"/><path d="M457.8 380.3L458.3 379.8L458.9 379.3L459.4 378.7L460 378.2L460.5 377.7L461.1 377.2L461.6 376.6L462.2 376.1L462.7 375.6L463.3 375.1L463.8 374.5L464.4 374L464.9 373.5L465.5 373L466 372.4L466.5 371.9L467.1 371.4L467.6 370.9L468.2 370.3L468.7 369.8L469.3 369.3L469.8 368.8L470.4 368.2L470.9 367.7L471.5 367.2L472 366.7L472.6 366.1L473.1 365.6L473.7 365.1L474.2 364.6L474.8 364L475.3 363.5L475.8 363L476.4 362.5L476.9 361.9L477.5 361.4L478 360.9L478.6 360.4L479.1 359.8L479.7 359.3L480.2 358.8L480.8 358.3L481.3 357.7L481.9 357.2L482.4 356.7L483 356.2L483.5 355.6L484 355.1L484.6 354.6L485.1 354.1L485.7 353.5L486.2 353L486.8 352.5L487.3 352L487.9 351.4L488.4 350.9L489 350.4L489.5 349.9L490.1 349.3L490.6 348.8L491.2 348.3L491.7 347.8L492.3 347.2L492.8 346.7L493.3 346.2L493.9 345.7L494.4 345.1L495 344.6L495.5 344.1L496.1 343.6L496.6 343L497.2 342.5L497.7 342L498.3 341.5L498.8 340.9L499.4 340.4L499.9 339.9L500.5 339.4L501 338.8L501.6 338.3L502.1 337.8L502.6 337.3L503.2 336.7L503.7 336.2L504.3 335.7L504.8 335.2L505.4 334.6L505.9 334.1L506.5 333.6L507 333.1L507.6 332.5L508.1 332L508.7 331.5L509.2 331L509.8 330.4L510.3 329.9L510.8 329.4L511.4 328.9L511.9 328.3L512.5 327.8L513 328.3L513.6 328.9L514.1 329.4L514.7 329.9L515.2 330.4L515.8 331L516.3 331.5L516.9 332L517.4 332.5L518 333.1L518.5 333.6L519.1 334.1L519.6 334.6L520.1 335.2L520.7 335.7L521.2 336.2L521.8 336.7L522.3 337.3L522.9 337.8L523.4 338.3L524 338.8L524.5 339.4L525.1 339.9L525.6 340.4L526.2 340.9L526.7 341.5L527.3 342L527.8 342.5L528.4 343L528.9 343.6L529.4 344.1L530 344.6L530.5 345.1L531.1 345.7L531.6 346.2L532.2 346.7L532.7 347.2L533.3 347.8L533.8 348.3L534.4 348.8L534.9 349.3L535.5 349.9L536 350.4L536.6 350.9L537.1 351.4L537.6 352L538.2 352.5L538.7 353L539.3 353.5L539.8 354.1L540.4 354.6L540.9 355.1L541.5 355.6L542 356.2L542.6 356.7L543.1 357.2L543.7 357.7L544.2 358.3L544.8 358.8L545.3 359.3L545.9 359.8L546.4 360.4L546.9 360.9L547.5 361.4L548 361.9L548.6 362.5L549.1 363L549.7 363.5L550.2 364L550.8 364.6L551.3 365.1L551.9 365.6L552.4 366.1L553 366.7L553.5 367.2L554.1 367.7L554.6 368.2L555.2 368.8L555.7 369.3L556.2 369.8L556.8 370.3L557.3 370.9L557.9 371.4L558.4 371.9L559 372.4L559.5 373L560.1 373.5L560.6 374L561.2 374.5L561.7 375.1L562.3 375.6L562.8 376.1L563.4 376.6L563.9 377.2L564.4 377.7L565 378.2L565.5 378.7L566.1 379.3L566.6 379.8L567.2 380.3L567.2 502.8L457.8 502.8Z" fill="#ffffff" stroke="#141414" stroke-width="5"/><path d="M457.8 439.4L567.2 439.4" fill="none" stroke="#141414" stroke-width="4"/><path d="M610.9 380.3L611.5 379.8L612 379.3L612.6 378.7L613.1 378.2L613.7 377.7L614.2 377.2L614.8 376.6L615.3 376.1L615.9 375.6L616.4 375.1L617 374.5L617.5 374L618 373.5L618.6 373L619.1 372.4L619.7 371.9L620.2 371.4L620.8 370.9L621.3 370.3L621.9 369.8L622.4 369.3L623 368.8L623.5 368.2L624.1 367.7L624.6 367.2L625.2 366.7L625.7 366.1L626.3 365.6L626.8 365.1L627.3 364.6L627.9 364L628.4 363.5L629 363L629.5 362.5L630.1 361.9L630.6 361.4L631.2 360.9L631.7 360.4L632.3 359.8L632.8 359.3L633.4 358.8L633.9 358.3L634.5 357.7L635 357.2L635.6 356.7L636.1 356.2L636.6 355.6L637.2 355.1L637.7 354.6L638.3 354.1L638.8 353.5L639.4 353L639.9 352.5L640.5 352L641 351.4L641.6 350.9L642.1 350.4L642.7 349.9L643.2 349.3L643.8 348.8L644.3 348.3L644.8 347.8L645.4 347.2L645.9 346.7L646.5 346.2L647 345.7L647.6 345.1L648.1 344.6L648.7 344.1L649.2 343.6L649.8 343L650.3 342.5L650.9 342L651.4 341.5L652 340.9L652.5 340.4L653.1 339.9L653.6 339.4L654.1 338.8L654.7 338.3L655.2 337.8L655.8 337.3L656.3 336.7L656.9 336.2L657.4 335.7L658 335.2L658.5 334.6L659.1 334.1L659.6 333.6L660.2 333.1L660.7 332.5L661.3 332L661.8 331.5L662.4 331L662.9 330.4L663.4 329.9L664 329.4L664.5 328.9L665.1 328.3L665.6 327.8L666.2 328.3L666.7 328.9L667.3 329.4L667.8 329.9L668.4 330.4L668.9 331L669.5 331.5L670 332L670.6 332.5L671.1 333.1L671.6 333.6L672.2 334.1L672.7 334.6L673.3 335.2L673.8 335.7L674.4 336.2L674.9 336.7L675.5 337.3L676 337.8L676.6 338.3L677.1 338.8L677.7 339.4L678.2 339.9L678.8 340.4L679.3 340.9L679.9 341.5L680.4 342L680.9 342.5L681.5 343L682 343.6L682.6 344.1L683.1 344.6L683.7 345.1L684.2 345.7L684.8 346.2L685.3 346.7L685.9 347.2L686.4 347.8L687 348.3L687.5 348.8L688.1 349.3L688.6 349.9L689.2 350.4L689.7 350.9L690.2 351.4L690.8 352L691.3 352.5L691.9 353L692.4 353.5L693 354.1L693.5 354.6L694.1 355.1L694.6 355.6L695.2 356.2L695.7 356.7L696.3 357.2L696.8 357.7L697.4 358.3L697.9 358.8L698.4 359.3L699 359.8L699.5 360.4L700.1 360.9L700.6 361.4L701.2 361.9L701.7 362.5L702.3 363L702.8 363.5L703.4 364L703.9 364.6L704.5 365.1L705 365.6L705.6 366.1L706.1 366.7L706.7 367.2L707.2 367.7L707.7 368.2L708.3 368.8L708.8 369.3L709.4 369.8L709.9 370.3L710.5 370.9L711 371.4L711.6 371.9L712.1 372.4L712.7 373L713.2 373.5L713.8 374L714.3 374.5L714.9 375.1L715.4 375.6L716 376.1L716.5 376.6L717 377.2L717.6 377.7L718.1 378.2L718.7 378.7L719.2 379.3L719.8 379.8L720.3 380.3L720.3 502.8L610.9 502.8Z" fill="#ffffff" stroke="#141414" stroke-width="5"/><path d="M610.9 439.4L720.3 439.4" fill="none" stroke="#141414" stroke-width="4"/><path d="M764.1 380.3L764.6 379.8L765.2 379.3L765.7 378.7L766.3 378.2L766.8 377.7L767.4 377.2L767.9 376.6L768.5 376.1L769 375.6L769.6 375.1L770.1 374.5L770.6 374L771.2 373.5L771.7 373L772.3 372.4L772.8 371.9L773.4 371.4L773.9 370.9L774.5 370.3L775 369.8L775.6 369.3L776.1 368.8L776.7 368.2L777.2 367.7L777.8 367.2L778.3 366.7L778.8 366.1L779.4 365.6L779.9 365.1L780.5 364.6L781 364L781.6 363.5L782.1 363L782.7 362.5L783.2 361.9L783.8 361.4L784.3 360.9L784.9 360.4L785.4 359.8L786 359.3L786.5 358.8L787.1 358.3L787.6 357.7L788.1 357.2L788.7 356.7L789.2 356.2L789.8 355.6L790.3 355.1L790.9 354.6L791.4 354.1L792 353.5L792.5 353L793.1 352.5L793.6 352L794.2 351.4L794.7 350.9L795.3 350.4L795.8 349.9L796.4 349.3L796.9 348.8L797.4 348.3L798 347.8L798.5 347.2L799.1 346.7L799.6 346.2L800.2 345.7L800.7 345.1L801.3 344.6L801.8 344.1L802.4 343.6L802.9 343L803.5 342.5L804 342L804.6 341.5L805.1 340.9L805.6 340.4L806.2 339.9L806.7 339.4L807.3 338.8L807.8 338.3L808.4 337.8L808.9 337.3L809.5 336.7L810 336.2L810.6 335.7L811.1 335.2L811.7 334.6L812.2 334.1L812.8 333.6L813.3 333.1L813.9 332.5L814.4 332L814.9 331.5L815.5 331L816 330.4L816.6 329.9L817.1 329.4L817.7 328.9L818.2 328.3L818.8 327.8L819.3 328.3L819.9 328.9L820.4 329.4L821 329.9L821.5 330.4L822.1 331L822.6 331.5L823.2 332L823.7 332.5L824.2 333.1L824.8 333.6L825.3 334.1L825.9 334.6L826.4 335.2L827 335.7L827.5 336.2L828.1 336.7L828.6 337.3L829.2 337.8L829.7 338.3L830.3 338.8L830.8 339.4L831.4 339.9L831.9 340.4L832.4 340.9L833 341.5L833.5 342L834.1 342.5L834.6 343L835.2 343.6L835.7 344.1L836.3 344.6L836.8 345.1L837.4 345.7L837.9 346.2L838.5 346.7L839 347.2L839.6 347.8L840.1 348.3L840.7 348.8L841.2 349.3L841.7 349.9L842.3 350.4L842.8 350.9L843.4 351.4L843.9 352L844.5 352.5L845 353L845.6 353.5L846.1 354.1L846.7 354.6L847.2 355.1L847.8 355.6L848.3 356.2L848.9 356.7L849.4 357.2L850 357.7L850.5 358.3L851 358.8L851.6 359.3L852.1 359.8L852.7 360.4L853.2 360.9L853.8 361.4L854.3 361.9L854.9 362.5L855.4 363L856 363.5L856.5 364L857.1 364.6L857.6 365.1L858.2 365.6L858.7 366.1L859.2 366.7L859.8 367.2L860.3 367.7L860.9 368.2L861.4 368.8L862 369.3L862.5 369.8L863.1 370.3L863.6 370.9L864.2 371.4L864.7 371.9L865.3 372.4L865.8 373L866.4 373.5L866.9 374L867.5 374.5L868 375.1L868.5 375.6L869.1 376.1L869.6 376.6L870.2 377.2L870.7 377.7L871.3 378.2L871.8 378.7L872.4 379.3L872.9 379.8L873.5 380.3L873.5 502.8L764.1 502.8Z" fill="#ffffff" stroke="#141414" stroke-width="5"/><path d="M764.1 439.4L873.5 439.4" fill="none" stroke="#141414" stroke-width="4"/><path d="M917.2 380.3L917.8 379.8L918.3 379.3L918.9 378.7L919.4 378.2L920 377.7L920.5 377.2L921.1 376.6L921.6 376.1L922.1 375.6L922.7 375.1L923.2 374.5L923.8 374L924.3 373.5L924.9 373L925.4 372.4L926 371.9L926.5 371.4L927.1 370.9L927.6 370.3L928.2 369.8L928.7 369.3L929.3 368.8L929.8 368.2L930.4 367.7L930.9 367.2L931.4 366.7L932 366.1L932.5 365.6L933.1 365.1L933.6 364.6L934.2 364L934.7 363.5L935.3 363L935.8 362.5L936.4 361.9L936.9 361.4L937.5 360.9L938 360.4L938.6 359.8L939.1 359.3L939.6 358.8L940.2 358.3L940.7 357.7L941.3 357.2L941.8 356.7L942.4 356.2L942.9 355.6L943.5 355.1L944 354.6L944.6 354.1L945.1 353.5L945.7 353L946.2 352.5L946.8 352L947.3 351.4L947.9 350.9L948.4 350.4L948.9 349.9L949.5 349.3L950 348.8L950.6 348.3L951.1 347.8L951.7 347.2L952.2 346.7L952.8 346.2L953.3 345.7L953.9 345.1L954.4 344.6L955 344.1L955.5 343.6L956.1 343L956.6 342.5L957.2 342L957.7 341.5L958.2 340.9L958.8 340.4L959.3 339.9L959.9 339.4L960.4 338.8L961 338.3L961.5 337.8L962.1 337.3L962.6 336.7L963.2 336.2L963.7 335.7L964.3 335.2L964.8 334.6L965.4 334.1L965.9 333.6L966.4 333.1L967 332.5L967.5 332L968.1 331.5L968.6 331L969.2 330.4L969.7 329.9L970.3 329.4L970.8 328.9L971.4 328.3L971.9 327.8L972.5 328.3L973 328.9L973.6 329.4L974.1 329.9L974.7 330.4L975.2 331L975.7 331.5L976.3 332L976.8 332.5L977.4 333.1L977.9 333.6L978.5 334.1L979 334.6L979.6 335.2L980.1 335.7L980.7 336.2L981.2 336.7L981.8 337.3L982.3 337.8L982.9 338.3L983.4 338.8L984 339.4L984.5 339.9L985 340.4L985.6 340.9L986.1 341.5L986.7 342L987.2 342.5L987.8 343L988.3 343.6L988.9 344.1L989.4 344.6L990 345.1L990.5 345.7L991.1 346.2L991.6 346.7L992.2 347.2L992.7 347.8L993.2 348.3L993.8 348.8L994.3 349.3L994.9 349.9L995.4 350.4L996 350.9L996.5 351.4L997.1 352L997.6 352.5L998.2 353L998.7 353.5L999.3 354.1L999.8 354.6L1000.4 355.1L1000.9 355.6L1001.5 356.2L1002 356.7L1002.5 357.2L1003.1 357.7L1003.6 358.3L1004.2 358.8L1004.7 359.3L1005.3 359.8L1005.8 360.4L1006.4 360.9L1006.9 361.4L1007.5 361.9L1008 362.5L1008.6 363L1009.1 363.5L1009.7 364L1010.2 364.6L1010.8 365.1L1011.3 365.6L1011.8 366.1L1012.4 366.7L1012.9 367.2L1013.5 367.7L1014 368.2L1014.6 368.8L1015.1 369.3L1015.7 369.8L1016.2 370.3L1016.8 370.9L1017.3 371.4L1017.9 371.9L1018.4 372.4L1019 373L1019.5 373.5L1020 374L1020.6 374.5L1021.1 375.1L1021.7 375.6L1022.2 376.1L1022.8 376.6L1023.3 377.2L1023.9 377.7L1024.4 378.2L1025 378.7L1025.5 379.3L1026.1 379.8L1026.6 380.3L1026.6 502.8L917.2 502.8Z" fill="#ffffff" stroke="#141414" stroke-width="5"/><path d="M917.2 439.4L1026.6 439.4" fill="none" stroke="#141414" stroke-width="4"/><path d="M64 502.8L1136 502.8L1136 537.8L64 537.8Z" fill="#ffffff" stroke="none"/><clipPath id="t0"><path d="M64 502.8L1136 502.8L1136 537.8L64 537.8Z"/></clipPath><path clip-path="url(#t0)" d="M600 -239.5L1359.8 520.3M593.6 -233.1L1353.5 526.7M587.3 -226.8L1347.1 533.1M580.9 -220.4L1340.7 539.4M574.5 -214.1L1334.4 545.8M568.2 -207.7L1328 552.1M561.8 -201.3L1321.7 558.5M555.5 -195L1315.3 564.9M549.1 -188.6L1308.9 571.2M542.7 -182.2L1302.6 577.6M536.4 -175.9L1296.2 584M530 -169.5L1289.8 590.3M523.6 -163.1L1283.5 596.7M517.3 -156.8L1277.1 603.1M510.9 -150.4L1270.7 609.4M504.5 -144.1L1264.4 615.8M498.2 -137.7L1258 622.1M491.8 -131.3L1251.6 628.5M485.4 -125L1245.3 634.9M479.1 -118.6L1238.9 641.2M472.7 -112.2L1232.6 647.6M466.4 -105.9L1226.2 654M460 -99.5L1219.8 660.3M453.6 -93.1L1213.5 666.7M447.3 -86.8L1207.1 673.1M440.9 -80.4L1200.7 679.4M434.5 -74L1194.4 685.8M428.2 -67.7L1188 692.2M421.8 -61.3L1181.6 698.5M415.4 -55L1175.3 704.9M409.1 -48.6L1168.9 711.2M402.7 -42.2L1162.6 717.6M396.4 -35.9L1156.2 724M390 -29.5L1149.8 730.3M383.6 -23.1L1143.5 736.7M377.3 -16.8L1137.1 743.1M370.9 -10.4L1130.7 749.4M364.5 -4L1124.4 755.8M358.2 2.3L1118 762.2M351.8 8.7L1111.6 768.5M345.4 15L1105.3 774.9M339.1 21.4L1098.9 781.2M332.7 27.8L1092.6 787.6M326.3 34.1L1086.2 794M320 40.5L1079.8 800.3M313.6 46.9L1073.5 806.7M307.3 53.2L1067.1 813.1M300.9 59.6L1060.7 819.4M294.5 66L1054.4 825.8M288.2 72.3L1048 832.2M281.8 78.7L1041.6 838.5M275.4 85.1L1035.3 844.9M269.1 91.4L1028.9 851.3M262.7 97.8L1022.5 857.6M256.3 104.1L1016.2 864M250 110.5L1009.8 870.3M243.6 116.9L1003.5 876.7M237.3 123.2L997.1 883.1M230.9 129.6L990.7 889.4M224.5 136L984.4 895.8M218.2 142.3L978 902.2M211.8 148.7L971.6 908.5M205.4 155.1L965.3 914.9M199.1 161.4L958.9 921.3M192.7 167.8L952.5 927.6M186.3 174.1L946.2 934M180 180.5L939.8 940.3M173.6 186.9L933.5 946.7M167.3 193.2L927.1 953.1M160.9 199.6L920.7 959.4M154.5 206L914.4 965.8M148.2 212.3L908 972.2M141.8 218.7L901.6 978.5M135.4 225.1L895.3 984.9M129.1 231.4L888.9 991.3M122.7 237.8L882.5 997.6M116.3 244.2L876.2 1004M110 250.5L869.8 1010.4M103.6 256.9L863.4 1016.7M97.2 263.2L857.1 1023.1M90.9 269.6L850.7 1029.4M84.5 276L844.4 1035.8M78.2 282.3L838 1042.2M71.8 288.7L831.6 1048.5M65.4 295.1L825.3 1054.9M59.1 301.4L818.9 1061.3M52.7 307.8L812.5 1067.6M46.3 314.2L806.2 1074M40 320.5L799.8 1080.4M33.6 326.9L793.4 1086.7M27.2 333.2L787.1 1093.1M20.9 339.6L780.7 1099.4M14.5 346L774.4 1105.8M8.2 352.3L768 1112.2M1.8 358.7L761.6 1118.5M-4.6 365.1L755.3 1124.9M-10.9 371.4L748.9 1131.3M-17.3 377.8L742.5 1137.6M-23.7 384.2L736.2 1144M-30 390.5L729.8 1150.4M-36.4 396.9L723.4 1156.7M-42.8 403.2L717.1 1163.1M-49.1 409.6L710.7 1169.5M-55.5 416L704.3 1175.8M-61.9 422.3L698 1182.2M-68.2 428.7L691.6 1188.5M-74.6 435.1L685.3 1194.9M-80.9 441.4L678.9 1201.3M-87.3 447.8L672.5 1207.6M-93.7 454.2L666.2 1214M-100 460.5L659.8 1220.4M-106.4 466.9L653.4 1226.7M-112.8 473.3L647.1 1233.1M-119.1 479.6L640.7 1239.5M-125.5 486L634.3 1245.8M-131.9 492.3L628 1252.2M-138.2 498.7L621.6 1258.5M-144.6 505.1L615.3 1264.9M-150.9 511.4L608.9 1271.3M-157.3 517.8L602.5 1277.6" fill="none" stroke="#8f8e8a" stroke-width="1"/><path d="M64 502.8L1136 502.8" fill="none" stroke="#141414" stroke-width="3"/><circle cx="206.2" cy="467.4" r="2.6" fill="#141414" stroke="none"/><path d="M201.8 471.1L210.6 471.1L209.3 484.2L208.4 502.8L204 502.8L203.1 484.2Z" fill="#141414" stroke="none"/><circle cx="512.5" cy="403.9" r="2.6" fill="#141414" stroke="none"/><path d="M508.1 407.7L516.9 407.7L515.6 420.8L514.7 439.4L510.3 439.4L509.4 420.8Z" fill="#141414" stroke="none"/><path d="M1114.1 262.2L996 410.9" fill="none" stroke="#b23a1d" stroke-width="2.5" stroke-dasharray="10 7"/><circle cx="996" cy="410.9" r="3.9" fill="#b23a1d" stroke="none"/></g></svg>
