<svg xmlns="http://www.w3.org/2000/svg" viewBox="0 0 1200 800" width="1200" height="800"><rect width="1200" height="800" fill="#ffffff"/><g stroke-linejoin="round" stroke-linecap="round"><path d="M378.3 150.9L1106.7 571.4L821.7 736L93.3 315.4Z" fill="none" stroke="#8f8e8a" stroke-width="1"/><path d="M457.5 233.1L299.1 324.6L299.1 222.2L457.5 130.7Z" fill="#d4d3cf" stroke="#141414" stroke-width="1.5"/><path d="M410 198.4L391 209.4L391 183.8L410 172.8Z" fill="#3d3c39" stroke="#141414" stroke-width="1"/><path d="M362.5 277L337.1 291.7L337.1 262.4L362.5 247.8Z" fill="#3d3c39" stroke="#141414" stroke-width="1"/><path d="M219.9 278.9L299.1 324.6L299.1 222.2L219.9 176.5Z" fill="#e6e5e1" stroke="#141414" stroke-width="1.5"/><path d="M250 296.2L269 307.2L269 265.1L250 254.2Z" fill="#3d3c39" stroke="#141414" stroke-width="1"/><path d="M238.9 227.7L280.1 251.4L280.1 225.8L238.9 202.1Z" fill="#3d3c39" stroke="#141414" stroke-width="1"/><path d="M378.3 85L457.5 130.7L299.1 222.2L219.9 176.5Z" fill="#ffffff" stroke="#141414" stroke-width="1.5"/><path d="M378.3 85L219.9 176.5L259.5 155.4L417.9 64Z" fill="#e6e5e1" stroke="#141414" stroke-width="1.5"/><path d="M457.5 130.7L299.1 222.2L259.5 155.4L417.9 64Z" fill="#ffffff" stroke="#141414" stroke-width="1.5"/><path d="M448 136.2L408.4 69.5" fill="none" stroke="#8f8e8a" stroke-width="0.8"/><path d="M438.5 141.7L398.9 75" fill="none" stroke="#8f8e8a" stroke-width="0.8"/><path d="M429 147.2L389.4 80.5" fill="none" stroke="#8f8e8a" stroke-width="0.8"/><path d="M419.5 152.7L379.9 85.9" fill="none" stroke="#8f8e8a" stroke-width="0.8"/><path d="M410 158.2L370.4 91.4" fill="none" stroke="#8f8e8a" stroke-width="0.8"/><path d="M400.5 163.7L360.9 96.9" fill="none" stroke="#8f8e8a" stroke-width="0.8"/><path d="M391 169.1L351.4 102.4" fill="none" stroke="#8f8e8a" stroke-width="0.8"/><path d="M381.5 174.6L341.9 107.9" fill="none" stroke="#8f8e8a" stroke-width="0.8"/><path d="M372 180.1L332.4 113.4" fill="none" stroke="#8f8e8a" stroke-width="0.8"/><path d="M362.5 185.6L322.9 118.9" fill="none" stroke="#8f8e8a" stroke-width="0.8"/><path d="M353 191.1L313.4 124.3" fill="none" stroke="#8f8e8a" stroke-width="0.8"/><path d="M343.5 196.6L303.9 129.8" fill="none" stroke="#8f8e8a" stroke-width="0.8"/><path d="M334 202.1L294.4 135.3" fill="none" stroke="#8f8e8a" stroke-width="0.8"/><path d="M324.5 207.5L284.9 140.8" fill="none" stroke="#8f8e8a" stroke-width="0.8"/><path d="M315 213L275.4 146.3" fill="none" stroke="#8f8e8a" stroke-width="0.8"/><path d="M305.5 218.5L265.9 151.8" fill="none" stroke="#8f8e8a" stroke-width="0.8"/><path d="M219.9 176.5L299.1 222.2L259.5 155.4Z" fill="#e6e5e1" stroke="#141414" stroke-width="1.5"/><path d="M568.3 297.1L410 388.6L410 286.2L568.3 194.7Z" fill="#d4d3cf" stroke="#141414" stroke-width="1.5"/><path d="M520.8 262.4L501.8 273.4L501.8 247.8L520.8 236.8Z" fill="#3d3c39" stroke="#141414" stroke-width="1"/><path d="M473.3 341L448 355.7L448 326.4L473.3 311.8Z" fill="#3d3c39" stroke="#141414" stroke-width="1"/><path d="M330.8 342.9L410 388.6L410 286.2L330.8 240.5Z" fill="#e6e5e1" stroke="#141414" stroke-width="1.5"/><path d="M360.9 360.2L379.9 371.2L379.9 329.1L360.9 318.2Z" fill="#3d3c39" stroke="#141414" stroke-width="1"/><path d="M349.8 291.7L391 315.4L391 289.8L349.8 266.1Z" fill="#3d3c39" stroke="#141414" stroke-width="1"/><path d="M489.1 149L568.3 194.7L410 286.2L330.8 240.5Z" fill="#ffffff" stroke="#141414" stroke-width="1.5"/><path d="M489.1 149L330.8 240.5L370.4 219.4L528.7 128Z" fill="#e6e5e1" stroke="#141414" stroke-width="1.5"/><path d="M568.3 194.7L410 286.2L370.4 219.4L528.7 128Z" fill="#ffffff" stroke="#141414" stroke-width="1.5"/><path d="M558.8 200.2L519.2 133.5" fill="none" stroke="#8f8e8a" stroke-width="0.8"/><path d="M549.3 205.7L509.7 139" fill="none" stroke="#8f8e8a" stroke-width="0.8"/><path d="M539.8 211.2L500.2 144.5" fill="none" stroke="#8f8e8a" stroke-width="0.8"/><path d="M530.3 216.7L490.7 149.9" fill="none" stroke="#8f8e8a" stroke-width="0.8"/><path d="M520.8 222.2L481.2 155.4" fill="none" stroke="#8f8e8a" stroke-width="0.8"/><path d="M511.3 227.7L471.7 160.9" fill="none" stroke="#8f8e8a" stroke-width="0.8"/><path d="M501.8 233.1L462.2 166.4" fill="none" stroke="#8f8e8a" stroke-width="0.8"/><path d="M492.3 238.6L452.7 171.9" fill="none" stroke="#8f8e8a" stroke-width="0.8"/><path d="M482.8 244.1L443.2 177.4" fill="none" stroke="#8f8e8a" stroke-width="0.8"/><path d="M473.3 249.6L433.7 182.9" fill="none" stroke="#8f8e8a" stroke-width="0.8"/><path d="M463.8 255.1L424.2 188.3" fill="none" stroke="#8f8e8a" stroke-width="0.8"/><path d="M454.3 260.6L414.7 193.8" fill="none" stroke="#8f8e8a" stroke-width="0.8"/><path d="M444.8 266.1L405.2 199.3" fill="none" stroke="#8f8e8a" stroke-width="0.8"/><path d="M435.3 271.5L395.7 204.8" fill="none" stroke="#8f8e8a" stroke-width="0.8"/><path d="M425.8 277L386.2 210.3" fill="none" stroke="#8f8e8a" stroke-width="0.8"/><path d="M416.3 282.5L376.7 215.8" fill="none" stroke="#8f8e8a" stroke-width="0.8"/><path d="M330.8 240.5L410 286.2L370.4 219.4Z" fill="#e6e5e1" stroke="#141414" stroke-width="1.5"/><path d="M679.2 361.1L520.8 452.6L520.8 350.2L679.2 258.7Z" fill="#d4d3cf" stroke="#141414" stroke-width="1.5"/><path d="M631.7 326.4L612.7 337.4L612.7 311.8L631.7 300.8Z" fill="#3d3c39" stroke="#141414" stroke-width="1"/><path d="M584.2 405L558.8 419.7L558.8 390.4L584.2 375.8Z" fill="#3d3c39" stroke="#141414" stroke-width="1"/><path d="M441.6 406.9L520.8 452.6L520.8 350.2L441.6 304.5Z" fill="#e6e5e1" stroke="#141414" stroke-width="1.5"/><path d="M471.7 424.2L490.7 435.2L490.7 393.1L471.7 382.2Z" fill="#b23a1d" stroke="#141414" stroke-width="1"/><path d="M460.6 355.7L501.8 379.4L501.8 353.8L460.6 330.1Z" fill="#3d3c39" stroke="#141414" stroke-width="1"/><path d="M600 213L679.2 258.7L520.8 350.2L441.6 304.5Z" fill="#ffffff" stroke="#141414" stroke-width="1.5"/><path d="M600 213L441.6 304.5L481.2 283.4L639.6 192Z" fill="#e6e5e1" stroke="#141414" stroke-width="1.5"/><path d="M679.2 258.7L520.8 350.2L481.2 283.4L639.6 192Z" fill="#ffffff" stroke="#141414" stroke-width="1.5"/><path d="M669.7 264.2L630.1 197.5" fill="none" stroke="#8f8e8a" stroke-width="0.8"/><path d="M660.2 269.7L620.6 203" fill="none" stroke="#8f8e8a" stroke-width="0.8"/><path d="M650.7 275.2L611.1 208.5" fill="none" stroke="#8f8e8a" stroke-width="0.8"/><path d="M641.2 280.7L601.6 213.9" fill="none" stroke="#8f8e8a" stroke-width="0.8"/><path d="M631.7 286.2L592.1 219.4" fill="none" stroke="#8f8e8a" stroke-width="0.8"/><path d="M622.2 291.7L582.6 224.9" fill="none" stroke="#8f8e8a" stroke-width="0.8"/><path d="M612.7 297.1L573.1 230.4" fill="none" stroke="#8f8e8a" stroke-width="0.8"/><path d="M603.2 302.6L563.6 235.9" fill="none" stroke="#8f8e8a" stroke-width="0.8"/><path d="M593.7 308.1L554.1 241.4" fill="none" stroke="#8f8e8a" stroke-width="0.8"/><path d="M584.2 313.6L544.6 246.9" fill="none" stroke="#8f8e8a" stroke-width="0.8"/><path d="M574.7 319.1L535.1 252.3" fill="none" stroke="#8f8e8a" stroke-width="0.8"/><path d="M565.2 324.6L525.6 257.8" fill="none" stroke="#8f8e8a" stroke-width="0.8"/><path d="M555.7 330.1L516.1 263.3" fill="none" stroke="#8f8e8a" stroke-width="0.8"/><path d="M546.2 335.5L506.6 268.8" fill="none" stroke="#8f8e8a" stroke-width="0.8"/><path d="M536.7 341L497.1 274.3" fill="none" stroke="#8f8e8a" stroke-width="0.8"/><path d="M527.2 346.5L487.6 279.8" fill="none" stroke="#8f8e8a" stroke-width="0.8"/><path d="M441.6 304.5L520.8 350.2L481.2 283.4Z" fill="#e6e5e1" stroke="#141414" stroke-width="1.5"/><path d="M261.1 339.2L261.1 303" fill="none" stroke="#8f8e8a" stroke-width="1.5"/><circle cx="261.1" cy="282.9" r="24.1" fill="#ffffff" stroke="#8f8e8a" stroke-width="1.2"/><path d="M790 425.1L631.7 516.6L631.7 414.2L790 322.7Z" fill="#d4d3cf" stroke="#141414" stroke-width="1.5"/><path d="M742.5 390.4L723.5 401.4L723.5 375.8L742.5 364.8Z" fill="#3d3c39" stroke="#141414" stroke-width="1"/><path d="M695 469L669.7 483.7L669.7 454.4L695 439.8Z" fill="#3d3c39" stroke="#141414" stroke-width="1"/><path d="M552.5 470.9L631.7 516.6L631.7 414.2L552.5 368.5Z" fill="#e6e5e1" stroke="#141414" stroke-width="1.5"/><path d="M582.6 488.2L601.6 499.2L601.6 457.1L582.6 446.2Z" fill="#3d3c39" stroke="#141414" stroke-width="1"/><path d="M571.5 419.7L612.7 443.4L612.7 417.8L571.5 394.1Z" fill="#3d3c39" stroke="#141414" stroke-width="1"/><path d="M710.9 277L790 322.7L631.7 414.2L552.5 368.5Z" fill="#ffffff" stroke="#141414" stroke-width="1.5"/><path d="M710.9 277L552.5 368.5L592.1 347.4L750.4 256Z" fill="#e6e5e1" stroke="#141414" stroke-width="1.5"/><path d="M790 322.7L631.7 414.2L592.1 347.4L750.4 256Z" fill="#ffffff" stroke="#141414" stroke-width="1.5"/><path d="M780.5 328.2L740.9 261.5" fill="none" stroke="#8f8e8a" stroke-width="0.8"/><path d="M771 333.7L731.4 267" fill="none" stroke="#8f8e8a" stroke-width="0.8"/><path d="M761.5 339.2L721.9 272.5" fill="none" stroke="#8f8e8a" stroke-width="0.8"/><path d="M752 344.7L712.4 277.9" fill="none" stroke="#8f8e8a" stroke-width="0.8"/><path d="M742.5 350.2L702.9 283.4" fill="none" stroke="#8f8e8a" stroke-width="0.8"/><path d="M733 355.7L693.4 288.9" fill="none" stroke="#8f8e8a" stroke-width="0.8"/><path d="M723.5 361.1L683.9 294.4" fill="none" stroke="#8f8e8a" stroke-width="0.8"/><path d="M714 366.6L674.4 299.9" fill="none" stroke="#8f8e8a" stroke-width="0.8"/><path d="M704.5 372.1L664.9 305.4" fill="none" stroke="#8f8e8a" stroke-width="0.8"/><path d="M695 377.6L655.4 310.9" fill="none" stroke="#8f8e8a" stroke-width="0.8"/><path d="M685.5 383.1L645.9 316.3" fill="none" stroke="#8f8e8a" stroke-width="0.8"/><path d="M676 388.6L636.4 321.8" fill="none" stroke="#8f8e8a" stroke-width="0.8"/><path d="M666.5 394.1L626.9 327.3" fill="none" stroke="#8f8e8a" stroke-width="0.8"/><path d="M657 399.5L617.4 332.8" fill="none" stroke="#8f8e8a" stroke-width="0.8"/><path d="M647.5 405L607.9 338.3" fill="none" stroke="#8f8e8a" stroke-width="0.8"/><path d="M638 410.5L598.4 343.8" fill="none" stroke="#8f8e8a" stroke-width="0.8"/><path d="M552.5 368.5L631.7 414.2L592.1 347.4Z" fill="#e6e5e1" stroke="#141414" stroke-width="1.5"/><path d="M372 403.2L372 367" fill="none" stroke="#8f8e8a" stroke-width="1.5"/><circle cx="372" cy="346.9" r="24.1" fill="#ffffff" stroke="#8f8e8a" stroke-width="1.2"/><path d="M900.9 489.1L742.5 580.6L742.5 478.2L900.9 386.7Z" fill="#d4d3cf" stroke="#141414" stroke-width="1.5"/><path d="M853.4 454.4L834.4 465.4L834.4 439.8L853.4 428.8Z" fill="#3d3c39" stroke="#141414" stroke-width="1"/><path d="M805.9 533L780.5 547.7L780.5 518.4L805.9 503.8Z" fill="#3d3c39" stroke="#141414" stroke-width="1"/><path d="M663.3 534.9L742.5 580.6L742.5 478.2L663.3 432.5Z" fill="#e6e5e1" stroke="#141414" stroke-width="1.5"/><path d="M693.4 552.2L712.4 563.2L712.4 521.1L693.4 510.2Z" fill="#3d3c39" stroke="#141414" stroke-width="1"/><path d="M682.3 483.7L723.5 507.4L723.5 481.8L682.3 458.1Z" fill="#3d3c39" stroke="#141414" stroke-width="1"/><path d="M821.7 341L900.9 386.7L742.5 478.2L663.3 432.5Z" fill="#ffffff" stroke="#141414" stroke-width="1.5"/><path d="M821.7 341L663.3 432.5L702.9 411.4L861.3 320Z" fill="#e6e5e1" stroke="#141414" stroke-width="1.5"/><path d="M900.9 386.7L742.5 478.2L702.9 411.4L861.3 320Z" fill="#ffffff" stroke="#141414" stroke-width="1.5"/><path d="M891.4 392.2L851.8 325.5" fill="none" stroke="#8f8e8a" stroke-width="0.8"/><path d="M881.9 397.7L842.3 331" fill="none" stroke="#8f8e8a" stroke-width="0.8"/><path d="M872.4 403.2L832.8 336.5" fill="none" stroke="#8f8e8a" stroke-width="0.8"/><path d="M862.9 408.7L823.3 341.9" fill="none" stroke="#8f8e8a" stroke-width="0.8"/><path d="M853.4 414.2L813.8 347.4" fill="none" stroke="#8f8e8a" stroke-width="0.8"/><path d="M843.9 419.7L804.3 352.9" fill="none" stroke="#8f8e8a" stroke-width="0.8"/><path d="M834.4 425.1L794.8 358.4" fill="none" stroke="#8f8e8a" stroke-width="0.8"/><path d="M824.9 430.6L785.3 363.9" fill="none" stroke="#8f8e8a" stroke-width="0.8"/><path d="M815.4 436.1L775.8 369.4" fill="none" stroke="#8f8e8a" stroke-width="0.8"/><path d="M805.9 441.6L766.3 374.9" fill="none" stroke="#8f8e8a" stroke-width="0.8"/><path d="M796.4 447.1L756.8 380.3" fill="none" stroke="#8f8e8a" stroke-width="0.8"/><path d="M786.9 452.6L747.3 385.8" fill="none" stroke="#8f8e8a" stroke-width="0.8"/><path d="M777.4 458.1L737.8 391.3" fill="none" stroke="#8f8e8a" stroke-width="0.8"/><path d="M767.9 463.5L728.3 396.8" fill="none" stroke="#8f8e8a" stroke-width="0.8"/><path d="M758.4 469L718.8 402.3" fill="none" stroke="#8f8e8a" stroke-width="0.8"/><path d="M748.9 474.5L709.3 407.8" fill="none" stroke="#8f8e8a" stroke-width="0.8"/><path d="M663.3 432.5L742.5 478.2L702.9 411.4Z" fill="#e6e5e1" stroke="#141414" stroke-width="1.5"/><path d="M482.8 467.2L482.8 431" fill="none" stroke="#8f8e8a" stroke-width="1.5"/><circle cx="482.8" cy="410.9" r="24.1" fill="#ffffff" stroke="#8f8e8a" stroke-width="1.2"/><path d="M1011.7 553.1L853.4 644.6L853.4 542.2L1011.7 450.7Z" fill="#d4d3cf" stroke="#141414" stroke-width="1.5"/><path d="M964.2 518.4L945.2 529.4L945.2 503.8L964.2 492.8Z" fill="#3d3c39" stroke="#141414" stroke-width="1"/><path d="M916.7 597L891.4 611.7L891.4 582.4L916.7 567.8Z" fill="#3d3c39" stroke="#141414" stroke-width="1"/><path d="M774.2 598.9L853.4 644.6L853.4 542.2L774.2 496.5Z" fill="#e6e5e1" stroke="#141414" stroke-width="1.5"/><path d="M804.3 616.2L823.3 627.2L823.3 585.1L804.3 574.2Z" fill="#3d3c39" stroke="#141414" stroke-width="1"/><path d="M793.2 547.7L834.4 571.4L834.4 545.8L793.2 522.1Z" fill="#3d3c39" stroke="#141414" stroke-width="1"/><path d="M932.6 405L1011.7 450.7L853.4 542.2L774.2 496.5Z" fill="#ffffff" stroke="#141414" stroke-width="1.5"/><path d="M932.6 405L774.2 496.5L813.8 475.4L972.1 384Z" fill="#e6e5e1" stroke="#141414" stroke-width="1.5"/><path d="M1011.7 450.7L853.4 542.2L813.8 475.4L972.1 384Z" fill="#ffffff" stroke="#141414" stroke-width="1.5"/><path d="M1002.2 456.2L962.6 389.5" fill="none" stroke="#8f8e8a" stroke-width="0.8"/><path d="M992.7 461.7L953.1 395" fill="none" stroke="#8f8e8a" stroke-width="0.8"/><path d="M983.2 467.2L943.6 400.5" fill="none" stroke="#8f8e8a" stroke-width="0.8"/><path d="M973.7 472.7L934.1 405.9" fill="none" stroke="#8f8e8a" stroke-width="0.8"/><path d="M964.2 478.2L924.6 411.4" fill="none" stroke="#8f8e8a" stroke-width="0.8"/><path d="M954.7 483.7L915.1 416.9" fill="none" stroke="#8f8e8a" stroke-width="0.8"/><path d="M945.2 489.1L905.6 422.4" fill="none" stroke="#8f8e8a" stroke-width="0.8"/><path d="M935.7 494.6L896.1 427.9" fill="none" stroke="#8f8e8a" stroke-width="0.8"/><path d="M926.2 500.1L886.6 433.4" fill="none" stroke="#8f8e8a" stroke-width="0.8"/><path d="M916.7 505.6L877.1 438.9" fill="none" stroke="#8f8e8a" stroke-width="0.8"/><path d="M907.2 511.1L867.6 444.3" fill="none" stroke="#8f8e8a" stroke-width="0.8"/><path d="M897.7 516.6L858.1 449.8" fill="none" stroke="#8f8e8a" stroke-width="0.8"/><path d="M888.2 522.1L848.6 455.3" fill="none" stroke="#8f8e8a" stroke-width="0.8"/><path d="M878.7 527.5L839.1 460.8" fill="none" stroke="#8f8e8a" stroke-width="0.8"/><path d="M869.2 533L829.6 466.3" fill="none" stroke="#8f8e8a" stroke-width="0.8"/><path d="M859.7 538.5L820.1 471.8" fill="none" stroke="#8f8e8a" stroke-width="0.8"/><path d="M774.2 496.5L853.4 542.2L813.8 475.4Z" fill="#e6e5e1" stroke="#141414" stroke-width="1.5"/><path d="M330.8 342.9L272.2 376.7L272.2 343.8L330.8 309.9Z" fill="#d4d3cf" stroke="#141414" stroke-width="1.5"/><path d="M267.4 373.9L272.2 376.7L272.2 343.8L267.4 341Z" fill="#e6e5e1" stroke="#141414" stroke-width="1.5"/><path d="M326 307.2L330.8 309.9L272.2 343.8L267.4 341Z" fill="#ffffff" stroke="#141414" stroke-width="1.5"/><path d="M272.2 376.7L267.4 379.4L267.4 346.5L272.2 343.8Z" fill="#d4d3cf" stroke="#141414" stroke-width="1.5"/><path d="M156.6 315.4L267.4 379.4L267.4 346.5L156.6 282.5Z" fill="#e6e5e1" stroke="#141414" stroke-width="1.5"/><path d="M197.8 339.2L219.9 352L219.9 322.7L197.8 309.9Z" fill="#3d3c39" stroke="#141414" stroke-width="1"/><path d="M161.3 279.8L272.2 343.8L267.4 346.5L156.6 282.5Z" fill="#ffffff" stroke="#141414" stroke-width="1.5"/><path d="M441.6 406.9L383 440.7L383 407.8L441.6 373.9Z" fill="#d4d3cf" stroke="#141414" stroke-width="1.5"/><path d="M378.3 437.9L383 440.7L383 407.8L378.3 405Z" fill="#e6e5e1" stroke="#141414" stroke-width="1.5"/><path d="M436.9 371.2L441.6 373.9L383 407.8L378.3 405Z" fill="#ffffff" stroke="#141414" stroke-width="1.5"/><path d="M383 440.7L378.3 443.4L378.3 410.5L383 407.8Z" fill="#d4d3cf" stroke="#141414" stroke-width="1.5"/><path d="M267.4 379.4L378.3 443.4L378.3 410.5L267.4 346.5Z" fill="#e6e5e1" stroke="#141414" stroke-width="1.5"/><path d="M308.6 403.2L330.8 416L330.8 386.7L308.6 373.9Z" fill="#3d3c39" stroke="#141414" stroke-width="1"/><path d="M272.2 343.8L383 407.8L378.3 410.5L267.4 346.5Z" fill="#ffffff" stroke="#141414" stroke-width="1.5"/><path d="M552.5 470.9L493.9 504.7L493.9 471.8L552.5 437.9Z" fill="#d4d3cf" stroke="#141414" stroke-width="1.5"/><path d="M489.1 501.9L493.9 504.7L493.9 471.8L489.1 469Z" fill="#e6e5e1" stroke="#141414" stroke-width="1.5"/><path d="M547.7 435.2L552.5 437.9L493.9 471.8L489.1 469Z" fill="#ffffff" stroke="#141414" stroke-width="1.5"/><path d="M493.9 504.7L489.1 507.4L489.1 474.5L493.9 471.8Z" fill="#d4d3cf" stroke="#141414" stroke-width="1.5"/><path d="M378.3 443.4L489.1 507.4L489.1 474.5L378.3 410.5Z" fill="#e6e5e1" stroke="#141414" stroke-width="1.5"/><path d="M419.5 467.2L441.6 480L441.6 450.7L419.5 437.9Z" fill="#3d3c39" stroke="#141414" stroke-width="1"/><path d="M383 407.8L493.9 471.8L489.1 474.5L378.3 410.5Z" fill="#ffffff" stroke="#141414" stroke-width="1.5"/><path d="M593.7 531.2L593.7 495" fill="none" stroke="#8f8e8a" stroke-width="1.5"/><circle cx="593.7" cy="474.9" r="24.1" fill="#ffffff" stroke="#8f8e8a" stroke-width="1.2"/><path d="M663.3 534.9L604.8 568.7L604.8 535.8L663.3 501.9Z" fill="#d4d3cf" stroke="#141414" stroke-width="1.5"/><path d="M600 565.9L604.8 568.7L604.8 535.8L600 533Z" fill="#e6e5e1" stroke="#141414" stroke-width="1.5"/><path d="M658.6 499.2L663.3 501.9L604.8 535.8L600 533Z" fill="#ffffff" stroke="#141414" stroke-width="1.5"/><path d="M604.8 568.7L600 571.4L600 538.5L604.8 535.8Z" fill="#d4d3cf" stroke="#141414" stroke-width="1.5"/><path d="M489.1 507.4L600 571.4L600 538.5L489.1 474.5Z" fill="#e6e5e1" stroke="#141414" stroke-width="1.5"/><path d="M530.3 531.2L552.5 544L552.5 514.7L530.3 501.9Z" fill="#3d3c39" stroke="#141414" stroke-width="1"/><path d="M493.9 471.8L604.8 535.8L600 538.5L489.1 474.5Z" fill="#ffffff" stroke="#141414" stroke-width="1.5"/><path d="M704.5 595.2L704.5 559" fill="none" stroke="#8f8e8a" stroke-width="1.5"/><circle cx="704.5" cy="538.9" r="24.1" fill="#ffffff" stroke="#8f8e8a" stroke-width="1.2"/><path d="M774.2 598.9L715.6 632.7L715.6 599.8L774.2 565.9Z" fill="#d4d3cf" stroke="#141414" stroke-width="1.5"/><path d="M710.9 629.9L715.6 632.7L715.6 599.8L710.9 597Z" fill="#e6e5e1" stroke="#141414" stroke-width="1.5"/><path d="M769.4 563.2L774.2 565.9L715.6 599.8L710.9 597Z" fill="#ffffff" stroke="#141414" stroke-width="1.5"/><path d="M715.6 632.7L710.9 635.4L710.9 602.5L715.6 599.8Z" fill="#d4d3cf" stroke="#141414" stroke-width="1.5"/><path d="M600 571.4L710.9 635.4L710.9 602.5L600 538.5Z" fill="#e6e5e1" stroke="#141414" stroke-width="1.5"/><path d="M641.2 595.2L663.3 608L663.3 578.7L641.2 565.9Z" fill="#3d3c39" stroke="#141414" stroke-width="1"/><path d="M604.8 535.8L715.6 599.8L710.9 602.5L600 538.5Z" fill="#ffffff" stroke="#141414" stroke-width="1.5"/><path d="M826.5 696.7L821.7 699.4L821.7 666.5L826.5 663.8Z" fill="#d4d3cf" stroke="#141414" stroke-width="1.5"/><path d="M710.9 635.4L821.7 699.4L821.7 666.5L710.9 602.5Z" fill="#e6e5e1" stroke="#141414" stroke-width="1.5"/><path d="M752 659.2L774.2 672L774.2 642.7L752 629.9Z" fill="#3d3c39" stroke="#141414" stroke-width="1"/><path d="M715.6 599.8L826.5 663.8L821.7 666.5L710.9 602.5Z" fill="#ffffff" stroke="#141414" stroke-width="1.5"/><path d="M815.4 659.2L815.4 623" fill="none" stroke="#8f8e8a" stroke-width="1.5"/><circle cx="815.4" cy="602.9" r="24.1" fill="#ffffff" stroke="#8f8e8a" stroke-width="1.2"/></g></svg>
