<svg xmlns="http://www.w3.org/2000/svg" viewBox="0 0 1200 800" width="1200" height="800"><rect width="1200" height="800" fill="#ffffff"/><g stroke-linejoin="round" stroke-linecap="round"><path d="M48 731.2L1152 731.2L724.2 535.6L475.8 535.6Z" fill="#e6e5e1" stroke="#141414" stroke-width="1.5"/><path d="M48 68.8L1152 68.8L724.2 386.6L475.8 386.6Z" fill="#ffffff" stroke="#141414" stroke-width="1.5"/><path d="M48 731.2L48 68.8L475.8 386.6L475.8 535.6Z" fill="#ffffff" stroke="#141414" stroke-width="1.5"/><path d="M1152 731.2L1152 68.8L724.2 386.6L724.2 535.6Z" fill="#ffffff" stroke="#141414" stroke-width="1.5"/><path d="M475.8 535.6L724.2 535.6L724.2 386.6L475.8 386.6Z" fill="#ffffff" stroke="#141414" stroke-width="1.5"/><path d="M142.6 731.2L497.1 535.6M237.3 731.2L518.4 535.6M331.9 731.2L539.7 535.6M426.5 731.2L561 535.6M521.1 731.2L582.3 535.6M615.8 731.2L603.5 535.6M710.4 731.2L624.8 535.6M805 731.2L646.1 535.6M899.7 731.2L667.4 535.6M994.3 731.2L688.7 535.6M1088.9 731.2L710 535.6" fill="none" stroke="#8f8e8a" stroke-width="0.8"/><path d="M48 731.2L1152 731.2L1152 68.8L48 68.8Z" fill="none" stroke="#141414" stroke-width="6"/><path d="M493.5 507.2L706.5 507.2L706.5 400.8L493.5 400.8Z" fill="#3d3c39" stroke="#141414" stroke-width="1.5"/><path d="M546.8 507.2L546.8 400.8M600 507.2L600 400.8M653.2 507.2L653.2 400.8M493.5 454L706.5 454" fill="none" stroke="#ffffff" stroke-width="1"/><path d="M186 561.7L465.7 505.7M186 490.7L465.7 482.7M186 419.7L465.7 459.7M186 348.7L465.7 436.7M186 277.8L465.7 413.6M186 561.7L186 277.8M307.8 537.3L307.8 336.9M374.2 524L374.2 369.2M416 515.7L416 389.5M444.8 509.9L444.8 403.4M465.7 505.7L465.7 413.6" fill="none" stroke="#141414" stroke-width="1"/><path d="M458.1 456.3L474.1 458.9L474.1 442.9L458.1 438.3Z" fill="#d4d3cf" stroke="#141414" stroke-width="1.5"/><path d="M442.3 456.3L458.1 456.3L474.1 458.9L460.1 458.9Z" fill="#e6e5e1" stroke="#141414" stroke-width="1.5"/><path d="M442.3 456.3L458.1 456.3L458.1 438.3L442.3 438.3Z" fill="#e6e5e1" stroke="#141414" stroke-width="1.5"/><path d="M400 485.3L430.8 484.3L430.8 459.7L400 456.3Z" fill="#d4d3cf" stroke="#141414" stroke-width="1.5"/><path d="M374.2 485.3L400 485.3L400 456.3L374.2 456.3Z" fill="#b23a1d" stroke="#141414" stroke-width="1.5"/><path d="M263.5 552.5L367.1 529.8L367.1 508L263.5 520.9Z" fill="#d4d3cf" stroke="#141414" stroke-width="1.5"/><path d="M232 520.9L263.5 520.9L367.1 508L345.2 508Z" fill="#ffffff" stroke="#141414" stroke-width="1.5"/><path d="M232 552.5L263.5 552.5L263.5 520.9L232 520.9Z" fill="#e6e5e1" stroke="#141414" stroke-width="1.5"/><path d="M329 384.2L381.9 402.7L381.9 375L329 349.8Z" fill="#d4d3cf" stroke="#141414" stroke-width="1.5"/><path d="M298.9 384.2L329 384.2L381.9 402.7L357.7 402.7Z" fill="#e6e5e1" stroke="#141414" stroke-width="1.5"/><path d="M298.9 384.2L329 384.2L329 349.8L298.9 349.8Z" fill="#e6e5e1" stroke="#141414" stroke-width="1.5"/><path d="M504.5 547.7L505.9 546.7L505.9 515.3L504.5 515.8Z" fill="#d4d3cf" stroke="#141414" stroke-width="1.5"/><path d="M501.1 515.8L504.5 515.8L505.9 515.3L502.5 515.3Z" fill="#ffffff" stroke="#141414" stroke-width="1.5"/><path d="M501.1 547.7L504.5 547.7L504.5 515.8L501.1 515.8Z" fill="#3d3c39" stroke="#141414" stroke-width="1.5"/><path d="M569.9 547.7L570.3 546.7L570.3 515.3L569.9 515.8Z" fill="#d4d3cf" stroke="#141414" stroke-width="1.5"/><path d="M566.4 515.8L569.9 515.8L570.3 515.3L567 515.3Z" fill="#ffffff" stroke="#141414" stroke-width="1.5"/><path d="M566.4 547.7L569.9 547.7L569.9 515.8L566.4 515.8Z" fill="#3d3c39" stroke="#141414" stroke-width="1.5"/><path d="M396.7 625.4L403.1 620.8L403.1 555.2L396.7 557.6Z" fill="#d4d3cf" stroke="#141414" stroke-width="1.5"/><path d="M389.4 557.6L396.7 557.6L403.1 555.2L396 555.2Z" fill="#ffffff" stroke="#141414" stroke-width="1.5"/><path d="M389.4 625.4L396.7 625.4L396.7 557.6L389.4 557.6Z" fill="#3d3c39" stroke="#141414" stroke-width="1.5"/><path d="M535.9 625.4L537.9 620.8L537.9 555.2L535.9 557.6Z" fill="#d4d3cf" stroke="#141414" stroke-width="1.5"/><path d="M528.6 557.6L535.9 557.6L537.9 555.2L530.8 555.2Z" fill="#ffffff" stroke="#141414" stroke-width="1.5"/><path d="M528.6 625.4L535.9 625.4L535.9 557.6L528.6 557.6Z" fill="#3d3c39" stroke="#141414" stroke-width="1.5"/><path d="M543.2 560.2L575 514.8L575 512.3L543.2 554.6Z" fill="#d4d3cf" stroke="#141414" stroke-width="1.5"/><path d="M372.9 554.6L543.2 554.6L575 512.3L499.8 512.3Z" fill="#ffffff" stroke="#141414" stroke-width="1.5"/><path d="M372.9 560.2L543.2 560.2L543.2 554.6L372.9 554.6Z" fill="#ffffff" stroke="#141414" stroke-width="1.5"/><path d="M630.1 547.7L629.7 546.7L629.7 515.3L630.1 515.8Z" fill="#d4d3cf" stroke="#141414" stroke-width="1.5"/><path d="M630.1 515.8L633.6 515.8L633 515.3L629.7 515.3Z" fill="#ffffff" stroke="#141414" stroke-width="1.5"/><path d="M630.1 547.7L633.6 547.7L633.6 515.8L630.1 515.8Z" fill="#3d3c39" stroke="#141414" stroke-width="1.5"/><path d="M695.5 547.7L694.1 546.7L694.1 515.3L695.5 515.8Z" fill="#d4d3cf" stroke="#141414" stroke-width="1.5"/><path d="M695.5 515.8L698.9 515.8L697.5 515.3L694.1 515.3Z" fill="#ffffff" stroke="#141414" stroke-width="1.5"/><path d="M695.5 547.7L698.9 547.7L698.9 515.8L695.5 515.8Z" fill="#3d3c39" stroke="#141414" stroke-width="1.5"/><path d="M664.1 625.4L662.1 620.8L662.1 555.2L664.1 557.6Z" fill="#d4d3cf" stroke="#141414" stroke-width="1.5"/><path d="M664.1 557.6L671.4 557.6L669.2 555.2L662.1 555.2Z" fill="#ffffff" stroke="#141414" stroke-width="1.5"/><path d="M664.1 625.4L671.4 625.4L671.4 557.6L664.1 557.6Z" fill="#3d3c39" stroke="#141414" stroke-width="1.5"/><path d="M803.3 625.4L796.9 620.8L796.9 555.2L803.3 557.6Z" fill="#d4d3cf" stroke="#141414" stroke-width="1.5"/><path d="M803.3 557.6L810.6 557.6L804 555.2L796.9 555.2Z" fill="#ffffff" stroke="#141414" stroke-width="1.5"/><path d="M803.3 625.4L810.6 625.4L810.6 557.6L803.3 557.6Z" fill="#3d3c39" stroke="#141414" stroke-width="1.5"/><path d="M656.8 560.2L625 514.8L625 512.3L656.8 554.6Z" fill="#d4d3cf" stroke="#141414" stroke-width="1.5"/><path d="M656.8 554.6L827.1 554.6L700.2 512.3L625 512.3Z" fill="#ffffff" stroke="#141414" stroke-width="1.5"/><path d="M656.8 560.2L827.1 560.2L827.1 554.6L656.8 554.6Z" fill="#ffffff" stroke="#141414" stroke-width="1.5"/><path d="M661.7 528.2L652.6 520.9L652.6 499.9L661.7 503.5Z" fill="#d4d3cf" stroke="#141414" stroke-width="1.5"/><path d="M661.7 503.5L711.1 503.5L694.6 499.9L652.6 499.9Z" fill="#ffffff" stroke="#141414" stroke-width="1.5"/><path d="M661.7 528.2L711.1 528.2L711.1 503.5L661.7 503.5Z" fill="#e6e5e1" stroke="#141414" stroke-width="1.5"/><path d="M673.9 502.5L669.6 501.1L669.6 487.2L673.9 487.7Z" fill="#d4d3cf" stroke="#141414" stroke-width="1.5"/><path d="M673.9 487.7L691.7 487.7L686.3 487.2L669.6 487.2Z" fill="#ffffff" stroke="#141414" stroke-width="1.5"/><path d="M673.9 502.5L691.7 502.5L691.7 487.7L673.9 487.7Z" fill="#e6e5e1" stroke="#141414" stroke-width="1.5"/><path d="M513.3 541.9L529 530.5L529 529.2L513.3 540.4Z" fill="#d4d3cf" stroke="#141414" stroke-width="1.5"/><path d="M434.4 540.4L513.3 540.4L529 529.2L464.5 529.2Z" fill="#ffffff" stroke="#141414" stroke-width="1.5"/><path d="M434.4 541.9L513.3 541.9L513.3 540.4L434.4 540.4Z" fill="#ffffff" stroke="#141414" stroke-width="1.5"/><circle cx="447.9" cy="477.8" r="6.1" fill="#141414" stroke="none"/><path d="M437.8 484.9L458.1 484.9L455 515.4L453 560L442.8 560L440.8 515.4Z" fill="#141414" stroke="none"/><circle cx="787.1" cy="477.6" r="7.7" fill="#141414" stroke="none"/><path d="M774.2 486.6L800 486.6L796.1 525.3L793.6 582.1L780.7 582.1L778.1 525.3Z" fill="#141414" stroke="none"/><path d="M513.1 328.2L513.1 444.1" fill="none" stroke="#141414" stroke-width="1"/><path d="M508 444.1L518.2 444.1L525.8 454.3L500.4 454.3Z" fill="#141414" stroke="none"/><path d="M686.9 328.2L686.9 444.1" fill="none" stroke="#141414" stroke-width="1"/><path d="M681.8 444.1L692 444.1L699.6 454.3L674.2 454.3Z" fill="#141414" stroke="none"/></g></svg>
